<svg xmlns="http://www.w3.org/2000/svg" width="720" height="560" viewBox="0 0 720 560" role="img" aria-labelledby="title desc">
  <title id="title">Diot-Siaci — document intelligence POC</title><desc id="desc">Mobile product card showing a PDF, retrieval, LLM, and structured output pipeline.</desc>
  <defs>
    <linearGradient id="bg" x1="0" y1="0" x2="1" y2="1"><stop stop-color="#FBFAFF"/><stop offset="1" stop-color="#F0EDFF"/></linearGradient>
    <linearGradient id="pipe" x1="0" y1="0" x2="1" y2="0"><stop stop-color="#79C9FF"/><stop offset="0.5" stop-color="#AA9DFF"/><stop offset="1" stop-color="#FF9BCB"/></linearGradient>
    <filter id="shadow" x="-20%" y="-30%" width="140%" height="170%"><feDropShadow dx="0" dy="14" stdDeviation="18" flood-color="#786CAC" flood-opacity="0.14"/></filter>
  </defs>
  <rect width="720" height="560" rx="34" fill="url(#bg)"/>
  <text x="34" y="47" font-family="Courier New, monospace" font-size="11" letter-spacing="1.6" fill="#78718B">DIOT-SIACI · APPLIED AI · 2024—2025</text>
  <text x="34" y="101" font-family="Arial, Helvetica, sans-serif" font-size="38" font-weight="700" letter-spacing="-1.5" fill="#171720">Long documents,</text>
  <text x="34" y="143" font-family="Georgia, Times New Roman, serif" font-size="40" font-style="italic" fill="#171720">traceable answers.</text>
  <text x="34" y="181" font-family="Courier New, monospace" font-size="10" font-weight="700" letter-spacing="1.1" fill="#57516B">PARSING · RETRIEVAL · LLM · API · TESTS</text>
  <g transform="translate(34 211)" filter="url(#shadow)" font-family="Arial, Helvetica, sans-serif">
    <rect width="652" height="307" rx="30" fill="#FFFFFF" fill-opacity="0.66" stroke="#FFFFFF" stroke-width="2"/>
    <circle cx="26" cy="25" r="4" fill="#FF9BBC"/><circle cx="40" cy="25" r="4" fill="#FFD070"/><circle cx="54" cy="25" r="4" fill="#8BE0C1"/>
    <text x="620" y="29" text-anchor="end" font-family="Courier New, monospace" font-size="10" letter-spacing="1.1" fill="#78718B">DOCUMENT PIPELINE</text>
    <path d="M120 176H539" stroke="url(#pipe)" stroke-width="6" stroke-linecap="round" opacity="0.42"/>
    <g transform="translate(30 68)">
      <rect width="122" height="190" rx="20" fill="#FFFFFF"/><path d="M88 0L122 34H94C91 34 88 31 88 27Z" fill="#DDD6FF"/>
      <text x="18" y="31" font-family="Courier New, monospace" font-size="10" letter-spacing="1" fill="#716B80">PDF</text><rect x="18" y="59" width="75" height="6" rx="3" fill="#B8B1C5"/><rect x="18" y="76" width="58" height="5" rx="2.5" fill="#DBD6E3"/><rect x="18" y="90" width="79" height="5" rx="2.5" fill="#DBD6E3"/><rect x="18" y="119" width="84" height="36" rx="8" fill="#EFF7FF"/><rect x="28" y="130" width="64" height="5" rx="2.5" fill="#8FCFFF"/>
      <text x="18" y="177" font-size="11" font-weight="700" fill="#171720">Structured MD</text>
      <g transform="translate(147 33)"><circle cx="59" cy="62" r="58" fill="#ECF6FF" stroke="#FFFFFF" stroke-width="2"/><text x="59" y="45" text-anchor="middle" font-family="Courier New, monospace" font-size="9" letter-spacing="1" fill="#6F7281">RETRIEVE</text><text x="59" y="69" text-anchor="middle" font-size="14" font-weight="700" fill="#171720">BM25</text><text x="59" y="87" text-anchor="middle" font-size="10" fill="#777181">embeddings</text></g>
      <g transform="translate(286 33)"><circle cx="59" cy="62" r="58" fill="#EEE9FF" stroke="#FFFFFF" stroke-width="2"/><text x="59" y="45" text-anchor="middle" font-family="Courier New, monospace" font-size="9" letter-spacing="1" fill="#6F6981">ORCHESTRATE</text><text x="59" y="70" text-anchor="middle" font-size="15" font-weight="700" fill="#171720">LLM</text><text x="59" y="88" text-anchor="middle" font-size="10" fill="#777181">parallel calls</text></g>
      <g transform="translate(430)"><rect width="132" height="190" rx="22" fill="#171720"/><text x="66" y="31" text-anchor="middle" font-family="Courier New, monospace" font-size="9" letter-spacing="1" fill="#C9C3D5">OUTPUT</text><circle cx="66" cy="74" r="24" fill="#8BE0C1"/><path d="M55 74L63 82L78 64" fill="none" stroke="#171720" stroke-width="4" stroke-linecap="round" stroke-linejoin="round"/><rect x="36" y="116" width="60" height="5" rx="2.5" fill="#FFFFFF" fill-opacity="0.8"/><rect x="36" y="132" width="48" height="5" rx="2.5" fill="#FFFFFF" fill-opacity="0.35"/><text x="66" y="164" text-anchor="middle" font-size="10" fill="#FFFFFF">JSON · Excel</text><text x="66" y="179" text-anchor="middle" font-size="10" fill="#FFFFFF">annotated PDF</text></g>
    </g>
    <text x="326" y="290" text-anchor="middle" font-family="Courier New, monospace" font-size="9" letter-spacing="1" fill="#7A7588">PYTHON · FASTAPI · OPENAI · BM25 · EMBEDDINGS</text>
  </g>
</svg>
