<svg xmlns="http://www.w3.org/2000/svg" width="1200" height="370" viewBox="0 0 1200 370" role="img" aria-labelledby="title desc">
  <title id="title">Uni—Translate — real-time voice translation product</title>
  <desc id="desc">A portfolio card describing Uni—Translate with an audio waveform and a speech recognition, translation, and synthesis pipeline.</desc>
  <defs>
    <linearGradient id="bg" x1="0" y1="0" x2="1" y2="1"><stop stop-color="#F7FAFF"/><stop offset="1" stop-color="#E8F3FF"/></linearGradient>
    <linearGradient id="signal" x1="0" y1="0" x2="1" y2="0"><stop stop-color="#65C8FF"/><stop offset="0.52" stop-color="#7E95FF"/><stop offset="1" stop-color="#B58DFF"/></linearGradient>
    <radialGradient id="orb" cx="32%" cy="22%" r="74%"><stop stop-color="#FFFFFF"/><stop offset="0.2" stop-color="#C8F1FF"/><stop offset="1" stop-color="#82A8FF"/></radialGradient>
    <filter id="shadow" x="-20%" y="-30%" width="140%" height="170%"><feDropShadow dx="0" dy="14" stdDeviation="18" flood-color="#6683B2" flood-opacity="0.15"/></filter>
    <filter id="glow" x="-80%" y="-80%" width="260%" height="260%"><feGaussianBlur stdDeviation="16"/></filter>
  </defs>
  <rect width="1200" height="370" rx="34" fill="url(#bg)"/>
  <circle cx="1114" cy="48" r="72" fill="#B799FF" opacity="0.16" filter="url(#glow)"/>
  <circle cx="667" cy="336" r="84" fill="#74D1FF" opacity="0.2" filter="url(#glow)"/>

  <g font-family="Arial, Helvetica, sans-serif" fill="#171720">
    <text x="54" y="57" font-family="Courier New, monospace" font-size="11" letter-spacing="1.8" fill="#74798A">UNI—TRANSLATE · VOICE PRODUCT · 2026</text>
    <text x="54" y="119" font-size="38" font-weight="680" letter-spacing="-1.5">Keep a conversation flowing</text>
    <text x="54" y="160" font-family="Georgia, Times New Roman, serif" font-size="39" font-style="italic">across languages.</text>
    <text x="55" y="207" font-size="17" fill="#646978">Recognition, translation, and synthesis disappear</text>
    <text x="55" y="232" font-size="17" fill="#646978">behind a natural real-time exchange.</text>
    <text x="55" y="280" font-family="Courier New, monospace" font-size="10" font-weight="700" letter-spacing="1.2" fill="#4F566B">PRODUCT DESIGN &amp; FULL-STACK · EIP JURY VALIDATED</text>
    <g transform="translate(54 307)" font-family="Courier New, monospace" font-size="10" fill="#545A6C">
      <rect width="94" height="28" rx="14" fill="#FFFFFF" fill-opacity="0.74"/><text x="18" y="18">WEBSOCKET</text>
      <rect x="104" width="76" height="28" rx="14" fill="#FFFFFF" fill-opacity="0.74"/><text x="124" y="18">VOXTRAL</text>
      <rect x="190" width="98" height="28" rx="14" fill="#FFFFFF" fill-opacity="0.74"/><text x="205" y="18">ELEVENLABS</text>
      <rect x="298" width="96" height="28" rx="14" fill="#FFFFFF" fill-opacity="0.74"/><text x="314" y="18">PLAYWRIGHT</text>
    </g>
  </g>

  <g transform="translate(700 34)" filter="url(#shadow)">
    <rect width="446" height="302" rx="31" fill="#FFFFFF" fill-opacity="0.6" stroke="#FFFFFF" stroke-width="2"/>
    <path d="M31 1H414C431 1 445 15 445 32" fill="none" stroke="#FFFFFF" stroke-width="3" stroke-linecap="round"/>
    <circle cx="27" cy="26" r="4" fill="#FF9BBC"/><circle cx="41" cy="26" r="4" fill="#FFD070"/><circle cx="55" cy="26" r="4" fill="#8BE0C1"/>
    <text x="224" y="30" text-anchor="middle" font-family="Courier New, monospace" font-size="10" letter-spacing="1.2" fill="#74798A">FR → EN · SIGNAL LIVE</text>

    <rect x="25" y="55" width="396" height="112" rx="20" fill="#F8FBFF" fill-opacity="0.88"/>
    <path d="M39 112L48 106L57 116L66 91L75 119L84 102L93 111L102 81L111 119L120 97L129 112L138 72L147 117L156 101L165 110L174 86L183 120L192 96L201 111L210 76L219 117L228 93L237 112L246 84L255 120L264 98L273 108L282 71L291 118L300 91L309 111L318 80L327 120L336 96L345 109L354 77L363 118L372 94L381 112L390 86L399 114L408 108" fill="none" stroke="url(#signal)" stroke-width="4" stroke-linecap="round" stroke-linejoin="round"/>
    <line x1="245" y1="67" x2="245" y2="155" stroke="#7E95FF" stroke-width="2" opacity="0.7"/>
    <rect x="222" y="61" width="46" height="18" rx="9" fill="#171720"/><text x="245" y="73" text-anchor="middle" font-family="Courier New, monospace" font-size="8" fill="#FFFFFF">00:11.8</text>

    <g transform="translate(25 193)" font-family="Arial, Helvetica, sans-serif">
      <g><circle cx="30" cy="26" r="25" fill="url(#orb)"/><text x="30" y="30" text-anchor="middle" font-size="11" font-weight="700" fill="#171720">ASR</text></g>
      <path d="M58 26H91" stroke="#8AA5D5" stroke-width="2" stroke-dasharray="3 5"/>
      <g transform="translate(94)"><circle cx="30" cy="26" r="25" fill="#C8B4FF"/><text x="30" y="30" text-anchor="middle" font-size="11" font-weight="700" fill="#171720">MT</text></g>
      <path d="M152 26H185" stroke="#9A95C7" stroke-width="2" stroke-dasharray="3 5"/>
      <g transform="translate(188)"><circle cx="30" cy="26" r="25" fill="#FFB8D3"/><text x="30" y="30" text-anchor="middle" font-size="11" font-weight="700" fill="#171720">TTS</text></g>
      <path d="M246 26H279" stroke="#A18BA8" stroke-width="2" stroke-dasharray="3 5"/>
      <g transform="translate(282)"><rect width="89" height="52" rx="26" fill="#171720"/><text x="44" y="23" text-anchor="middle" font-family="Courier New, monospace" font-size="8" letter-spacing="1" fill="#9FDFFF">VOICE</text><text x="44" y="38" text-anchor="middle" font-size="11" font-weight="700" fill="#FFFFFF">restored</text></g>
    </g>
    <text x="25" y="283" font-family="Courier New, monospace" font-size="9" letter-spacing="1.1" fill="#7B8090">ORDER PRESERVED · STATE ISOLATED · E2E PROVED</text>
  </g>
</svg>
